<?xml version="1.0" encoding="UTF-8"?>
<!--Generator: Apple Native CoreSVG 232.5-->
<!DOCTYPE svg
PUBLIC "-//W3C//DTD SVG 1.1//EN"
       "http://www.w3.org/Graphics/SVG/1.1/DTD/svg11.dtd">
<svg version="1.1" xmlns="http://www.w3.org/2000/svg" xmlns:xlink="http://www.w3.org/1999/xlink" width="207.861" height="186.401">
 <g>
  <rect height="186.401" opacity="0" width="207.861" x="0" y="0"/>
  <path d="M0 119.019C15.7471 144.727 56.8359 184.277 112.207 184.277C147.437 184.277 157.178 167.798 177.612 167.798C194.678 167.798 201.416 179.297 204.053 183.765C204.712 185.229 206.03 186.108 206.836 183.398C207.349 181.421 207.861 178.784 207.861 175.635C207.861 166.626 205.078 149.414 190.063 130.664C193.359 121.436 193.726 111.255 193.726 105.176C193.726 78.0029 178.345 30.542 127.588 0C138.135 14.8682 152.344 37.6465 152.344 69.1406C152.344 80.5664 149.194 93.1641 146.631 99.3896C119.092 83.4229 66.2109 39.4043 45.0439 16.9189C62.0361 42.9932 82.1045 66.5039 104.37 91.2598C74.4141 72.29 46.5088 51.123 20.5078 27.832C45.4102 64.0137 76.9043 99.6094 118.579 133.228C106.641 139.893 94.4824 145.093 73.5352 145.093C48.0469 145.093 16.9189 132.788 0 119.019Z" fill="#ff9f0a"/>
 </g>
</svg>
